<svg xmlns="http://www.w3.org/2000/svg" viewBox="0 0 800 600" width="800" height="600"><rect width="100%" height="100%" fill="black"/><circle cx="371" cy="51" r="1.48" fill="white" /><circle cx="195" cy="464" r="0.66" fill="white" /><circle cx="432" cy="540" r="1.14" fill="white" /><circle cx="774" cy="517" r="0.60" fill="white" /><circle cx="282" cy="339" r="0.78" fill="white" /><circle cx="628" cy="425" r="1.03" fill="white" /><circle cx="30" cy="277" r="0.52" fill="white" /><circle cx="169" cy="375" r="0.64" fill="white" /><circle cx="600" cy="409" r="0.72" fill="white" /><circle cx="229" cy="7" r="1.21" fill="white" /><circle cx="673" cy="423" r="1.33" fill="white" /><circle cx="515" cy="463" r="0.69" fill="white" /><circle cx="618" cy="585" r="1.46" fill="white" /><circle cx="411" cy="584" r="1.12" fill="white" /><circle cx="464" cy="540" r="1.02" fill="white" /><circle cx="780" cy="428" r="0.90" fill="white" /><circle cx="739" cy="382" r="0.93" fill="white" /><circle cx="790" cy="352" r="0.91" fill="white" /><circle cx="576" cy="564" r="1.44" fill="white" /><circle cx="359" cy="405" r="0.82" fill="white" /><circle cx="242" cy="299" r="0.97" fill="white" /><circle cx="381" cy="411" r="0.62" fill="white" /><circle cx="200" cy="437" r="0.76" fill="white" /><circle cx="603" cy="205" r="0.89" fill="white" /><circle cx="317" cy="367" r="1.49" fill="white" /><circle cx="625" cy="86" r="0.77" fill="white" /><circle cx="250" cy="363" r="1.20" fill="white" /><circle cx="387" cy="65" r="0.74" fill="white" /><circle cx="528" cy="202" r="0.50" fill="white" /><circle cx="604" cy="358" r="1.23" fill="white" /><circle cx="641" cy="505" r="1.47" fill="white" /><circle cx="600" cy="209" r="1.26" fill="white" /><circle cx="603" cy="561" r="0.79" fill="white" /><circle cx="545" cy="40" r="0.71" fill="white" /><circle cx="183" cy="490" r="1.09" fill="white" /><circle cx="730" cy="264" r="1.01" fill="white" /><circle cx="109" cy="384" r="1.28" fill="white" /><circle cx="780" cy="64" r="0.52" fill="white" /><circle cx="492" cy="370" r="0.94" fill="white" /><circle cx="690" cy="524" r="1.22" fill="white" /><circle cx="97" cy="267" r="0.72" fill="white" /><circle cx="648" cy="344" r="0.53" fill="white" /><circle cx="490" cy="64" r="0.89" fill="white" /><circle cx="65" cy="167" r="1.12" fill="white" /><circle cx="455" cy="347" r="1.26" fill="white" /><circle cx="471" cy="306" r="0.61" fill="white" /><circle cx="482" cy="396" r="1.39" fill="white" /><circle cx="762" cy="229" r="1.30" fill="white" /><circle cx="79" cy="298" r="1.36" fill="white" /><circle cx="283" cy="146" r="1.42" fill="white" /><circle cx="288" cy="339" r="0.73" fill="white" /><circle cx="566" cy="383" r="0.90" fill="white" /><circle cx="99" cy="32" r="0.59" fill="white" /><circle cx="244" cy="239" r="0.63" fill="white" /><circle cx="138" cy="28" r="1.46" fill="white" /><circle cx="340" cy="472" r="1.46" fill="white" /><circle cx="217" cy="80" r="1.45" fill="white" /><circle cx="46" cy="224" r="1.37" fill="white" /><circle cx="571" cy="285" r="0.58" fill="white" /><circle cx="193" cy="513" r="1.20" fill="white" /><circle cx="96" cy="546" r="0.62" fill="white" /><circle cx="614" cy="78" r="0.77" fill="white" /><circle cx="628" cy="203" r="1.32" fill="white" /><circle cx="315" cy="399" r="1.42" fill="white" /><circle cx="286" cy="463" r="1.26" fill="white" /><circle cx="798" cy="126" r="0.76" fill="white" /><circle cx="210" cy="306" r="0.69" fill="white" /><circle cx="17" cy="16" r="0.63" fill="white" /><circle cx="519" cy="529" r="1.40" fill="white" /><circle cx="239" cy="586" r="1.18" fill="white" /><circle cx="212" cy="246" r="1.47" fill="white" /><circle cx="56" cy="196" r="1.06" fill="white" /><circle cx="787" cy="298" r="1.34" fill="white" /><circle cx="27" cy="430" r="0.56" fill="white" /><circle cx="502" cy="352" r="1.04" fill="white" /><circle cx="136" cy="370" r="0.79" fill="white" /><circle cx="705" cy="390" r="1.12" fill="white" /><circle cx="692" cy="99" r="1.23" fill="white" /><circle cx="147" cy="465" r="0.61" fill="white" /><circle cx="445" cy="423" r="0.74" fill="white" /><circle cx="266" cy="415" r="0.80" fill="white" /><circle cx="83" cy="344" r="1.22" fill="white" /><circle cx="753" cy="583" r="0.92" fill="white" /><circle cx="241" cy="183" r="0.64" fill="white" /><circle cx="276" cy="292" r="0.82" fill="white" /><circle cx="248" cy="214" r="1.36" fill="white" /><circle cx="448" cy="150" r="0.80" fill="white" /><circle cx="130" cy="318" r="0.67" fill="white" /><circle cx="599" cy="102" r="0.68" fill="white" /><circle cx="519" cy="514" r="0.55" fill="white" /><circle cx="712" cy="134" r="0.66" fill="white" /><circle cx="117" cy="294" r="1.00" fill="white" /><circle cx="363" cy="24" r="0.60" fill="white" /><circle cx="202" cy="331" r="1.12" fill="white" /><circle cx="533" cy="1" r="0.83" fill="white" /><circle cx="668" cy="195" r="1.12" fill="white" /><circle cx="316" cy="181" r="0.87" fill="white" /><circle cx="425" cy="566" r="1.25" fill="white" /><circle cx="123" cy="102" r="1.24" fill="white" /><circle cx="296" cy="531" r="0.96" fill="white" /><circle cx="259" cy="205" r="1.06" fill="white" /><circle cx="515" cy="572" r="0.51" fill="white" /><circle cx="603" cy="257" r="0.76" fill="white" /><circle cx="756" cy="139" r="1.17" fill="white" /><circle cx="253" cy="521" r="1.02" fill="white" /><circle cx="647" cy="150" r="1.12" fill="white" /><circle cx="714" cy="540" r="0.74" fill="white" /><circle cx="427" cy="208" r="1.32" fill="white" /><circle cx="739" cy="475" r="1.46" fill="white" /><circle cx="773" cy="595" r="1.18" fill="white" /><circle cx="682" cy="71" r="1.14" fill="white" /><circle cx="638" cy="214" r="1.22" fill="white" /><circle cx="403" cy="554" r="1.16" fill="white" /><circle cx="40" cy="30" r="1.46" fill="white" /><circle cx="305" cy="255" r="0.62" fill="white" /><circle cx="599" cy="330" r="1.40" fill="white" /><circle cx="587" cy="433" r="0.74" fill="white" /><circle cx="769" cy="107" r="0.82" fill="white" /><circle cx="244" cy="475" r="0.55" fill="white" /><circle cx="700" cy="64" r="1.35" fill="white" /><circle cx="508" cy="109" r="1.47" fill="white" /><circle cx="655" cy="339" r="0.86" fill="white" /><circle cx="227" cy="551" r="0.93" fill="white" /><circle cx="662" cy="419" r="0.95" fill="white" /><circle cx="427" cy="84" r="1.01" fill="white" /><circle cx="764" cy="259" r="0.65" fill="white" /><circle cx="420" cy="576" r="0.92" fill="white" /><circle cx="41" cy="548" r="0.88" fill="white" /><circle cx="192" cy="428" r="1.35" fill="white" /><circle cx="66" cy="596" r="1.42" fill="white" /><circle cx="77" cy="165" r="0.77" fill="white" /><circle cx="566" cy="554" r="0.68" fill="white" /><circle cx="777" cy="291" r="1.37" fill="white" /><circle cx="216" cy="248" r="0.53" fill="white" /><circle cx="773" cy="158" r="1.23" fill="white" /><circle cx="575" cy="236" r="0.61" fill="white" /><circle cx="466" cy="382" r="0.54" fill="white" /><circle cx="94" cy="380" r="1.22" fill="white" /><circle cx="563" cy="245" r="1.24" fill="white" /><circle cx="62" cy="127" r="0.56" fill="white" /><circle cx="512" cy="244" r="1.28" fill="white" /><circle cx="432" cy="174" r="0.52" fill="white" /><circle cx="632" cy="140" r="0.74" fill="white" /><circle cx="555" cy="453" r="0.97" fill="white" /><circle cx="119" cy="87" r="0.77" fill="white" /><circle cx="766" cy="409" r="1.13" fill="white" /><circle cx="534" cy="534" r="0.81" fill="white" /><circle cx="23" cy="111" r="0.83" fill="white" /><circle cx="288" cy="286" r="1.33" fill="white" /><circle cx="681" cy="543" r="1.19" fill="white" /><circle cx="527" cy="351" r="1.29" fill="white" /><circle cx="65" cy="167" r="1.08" fill="white" /><circle cx="242" cy="407" r="1.05" fill="white" /><circle cx="146" cy="75" r="1.35" fill="white" /><circle cx="378" cy="544" r="0.96" fill="white" /><circle cx="761" cy="67" r="1.05" fill="white" /><circle cx="428" cy="225" r="0.76" fill="white" /><circle cx="353" cy="488" r="1.37" fill="white" /><circle cx="234" cy="371" r="1.04" fill="white" /><circle cx="200" cy="76" r="0.62" fill="white" /><circle cx="399" cy="89" r="1.07" fill="white" /><circle cx="413" cy="478" r="1.30" fill="white" /><circle cx="77" cy="429" r="0.62" fill="white" /><circle cx="336" cy="338" r="0.90" fill="white" /><circle cx="279" cy="600" r="1.06" fill="white" /><circle cx="41" cy="155" r="0.67" fill="white" /><circle cx="361" cy="301" r="1.21" fill="white" /><circle cx="547" cy="274" r="1.45" fill="white" /><circle cx="296" cy="388" r="0.63" fill="white" /><circle cx="715" cy="319" r="1.35" fill="white" /><circle cx="660" cy="37" r="0.52" fill="white" /><circle cx="498" cy="441" r="0.95" fill="white" /><circle cx="505" cy="429" r="1.37" fill="white" /><circle cx="570" cy="55" r="0.78" fill="white" /><circle cx="37" cy="261" r="1.48" fill="white" /><circle cx="292" cy="154" r="1.38" fill="white" /><circle cx="183" cy="269" r="0.63" fill="white" /><circle cx="440" cy="251" r="0.69" fill="white" /><circle cx="677" cy="600" r="0.83" fill="white" /><circle cx="95" cy="157" r="1.42" fill="white" /><circle cx="704" cy="589" r="0.83" fill="white" /><circle cx="426" cy="63" r="0.78" fill="white" /><circle cx="360" cy="268" r="1.27" fill="white" /><circle cx="665" cy="506" r="1.22" fill="white" /><circle cx="462" cy="159" r="1.40" fill="white" /><circle cx="561" cy="585" r="0.74" fill="white" /><circle cx="700" cy="478" r="1.41" fill="white" /><circle cx="541" cy="575" r="1.43" fill="white" /><circle cx="795" cy="540" r="1.08" fill="white" /><circle cx="22" cy="443" r="1.29" fill="white" /><circle cx="577" cy="550" r="0.94" fill="white" /><circle cx="295" cy="366" r="1.43" fill="white" /><circle cx="381" cy="246" r="1.46" fill="white" /><circle cx="201" cy="346" r="0.70" fill="white" /><circle cx="172" cy="570" r="1.46" fill="white" /><circle cx="714" cy="86" r="1.14" fill="white" /><circle cx="773" cy="506" r="1.26" fill="white" /><circle cx="205" cy="401" r="1.07" fill="white" /><circle cx="317" cy="184" r="1.36" fill="white" /><circle cx="557" cy="190" r="1.03" fill="white" /></svg>